<svg width="358" height="172" viewBox="0 0 358 172" fill="none" xmlns="http://www.w3.org/2000/svg">
<rect width="358" height="172" rx="16" fill="url(#paint0_linear_20_2035)"/>
<mask id="mask0_20_2035" style="mask-type:alpha" maskUnits="userSpaceOnUse" x="0" y="0" width="358" height="172">
<rect width="358" height="172" fill="white"/>
</mask>
<g mask="url(#mask0_20_2035)">
<circle cx="271" cy="30" r="151" fill="url(#paint1_linear_20_2035)" fill-opacity="0.3"/>
<path d="M-135.173 16.0734C-127.256 14.0125 -105.869 16.9421 -83.654 45.1471C-55.8854 80.4033 1.8165 152.298 40.4604 106.076C79.1044 59.8542 88.8406 11.1877 65.7501 5.59582C42.6596 0.00396219 28.8346 49.1095 88.0498 70.8998C147.265 92.69 218.815 43.8428 216.823 -30.6034" stroke="#3DA0A7"/>
<path d="M275.926 165.624C278.953 193.531 252.429 201.389 239.597 195.077C193.725 171.888 214.034 160.584 233.725 134.655C253.415 108.727 272.899 137.716 275.926 165.624Z" stroke="#3DA0A7"/>
<path d="M27.3023 54.3023C23.5539 58.0506 17.2576 57.8315 17.2576 57.8315C17.2576 57.8315 17.0385 51.5352 20.7868 47.7869C24.5351 44.0386 30.8314 44.2577 30.8314 44.2577C30.8314 44.2577 31.0506 50.554 27.3023 54.3023Z" fill="#FFF1CE"/>
<path d="M108.224 64.011C108.378 63.742 108.398 63.4167 108.279 63.1305L104.847 54.8784C104.528 54.1118 103.468 54.0452 103.055 54.766L101.549 57.4004C101.395 57.6694 101.374 57.9947 101.493 58.2809L104.926 66.533C105.244 67.2996 106.305 67.3662 106.717 66.6454L108.224 64.011Z" fill="#FFF1CE"/>
<circle cx="51" cy="9" r="4" fill="#FFF1CE"/>
<path d="M362.712 97.0656C391.927 67.8498 391.927 20.4817 362.712 -8.7341C333.496 -37.9499 286.128 -37.9499 256.912 -8.7341C227.696 20.4817 227.696 67.8498 256.912 97.0656C286.128 126.281 333.496 126.281 362.712 97.0656Z" fill="#3DA0A7"/>
<path d="M309.815 116.649C349.846 116.649 382.298 84.1972 382.298 44.166C382.298 4.13477 349.846 -28.317 309.815 -28.317C269.784 -28.317 237.332 4.13477 237.332 44.166C237.332 84.1972 269.784 116.649 309.815 116.649Z" fill="#FFF6FA"/>
<path d="M360.121 94.4745C387.905 66.6896 387.905 21.6414 360.121 -6.14341C332.336 -33.9283 287.288 -33.9283 259.503 -6.14341C231.718 21.6414 231.718 66.6896 259.503 94.4745C287.288 122.259 332.336 122.259 360.121 94.4745Z" fill="#BCE5E8"/>
<path d="M280.154 108.834C289.184 112.983 299.224 115.314 309.815 115.314C349.109 115.314 380.964 83.46 380.964 44.1662C380.964 21.4406 370.294 1.21865 353.707 -11.8073C355.338 -3.37305 355.911 5.32348 356.446 13.9214C357.031 23.3125 357.608 32.817 355.89 42.0676C353.766 53.4923 348.224 64.0124 341.794 73.6911C334.774 84.2554 326.438 94.2111 315.786 101.097C305.312 107.869 292.34 111.411 280.154 108.834Z" fill="#8FD2D7"/>
<path d="M350.189 84.5429C372.488 62.2432 372.488 26.0883 350.189 3.7886C327.889 -18.5111 291.734 -18.5111 269.434 3.7886C247.135 26.0883 247.135 62.2432 269.434 84.5429C291.734 106.843 327.889 106.843 350.189 84.5429Z" fill="#FFF6FA"/>
<path d="M309.815 98.8171C339.998 98.8171 364.467 74.3489 364.467 44.1658C364.467 13.9828 339.998 -10.4855 309.815 -10.4855C279.632 -10.4855 255.164 13.9828 255.164 44.1658C255.164 74.3489 279.632 98.8171 309.815 98.8171Z" fill="#ADDFE2"/>
<path d="M344.209 78.5625C363.206 59.5655 363.206 28.7654 344.209 9.76849C325.212 -9.22844 294.412 -9.22846 275.415 9.76847C256.418 28.7654 256.418 59.5655 275.415 78.5625C294.412 97.5594 325.212 97.5594 344.209 78.5625Z" fill="#FFF6FA"/>
<path d="M309.815 90.7711C335.922 90.7711 357.086 69.9052 357.086 44.1658C357.086 18.4263 335.922 -2.43958 309.815 -2.43958C283.709 -2.43958 262.545 18.4263 262.545 44.1658C262.545 69.9052 283.709 90.7711 309.815 90.7711Z" fill="#BCE5E8"/>
<path d="M277.977 19.8984C267.742 23.374 260.014 30.7334 255.861 40.6908C251.37 51.4625 255.457 61.6193 263.754 69.0924C271.175 75.7754 282.392 78.513 291.829 74.7616C300.944 71.1368 308.211 61.3546 306.3 51.1699C304.452 41.3207 296.2 34.2482 286.052 35.0105C274.719 35.8621 267.403 45.7282 264.028 55.6594C262.393 60.4694 261.724 65.6205 262.597 70.6355C263.581 76.2935 268.215 81.2526 272.397 84.8102C280.855 92.0019 292.292 94.3296 302.94 91.5938C325.131 85.893 335.039 57.797 326.713 38.0053C322.706 28.4822 314.083 21.2588 303.555 21.1638C294.094 21.078 284.88 27.4255 281.559 36.2498C277.899 45.976 279.785 56.6005 286.432 64.5433C293.635 73.1495 304.603 73.1235 314.139 68.8949C323.313 64.8266 323.999 52.3198 318.349 45.0759C312.516 37.5972 301.386 35.3403 293.501 41.1828C285.575 47.0569 280.534 58.9636 284.634 68.429C288.564 77.4974 297.016 82.6745 306.574 83.9586C328.062 86.8472 350.215 63.9824 346.07 42.5675C341.926 21.1451 309.69 15.0324 297.226 32.0044C290.161 41.6263 286.404 53.5125 285.426 65.3149C284.962 70.9039 285.284 76.7389 286.725 82.1657C288.262 87.9598 292.502 92.0951 296.904 95.869C301.228 99.5757 305.7 102.96 311.39 104.106C316.476 105.131 321.746 103.24 326.456 101.542C329.139 100.575 328.122 96.2156 325.408 97.194C318.585 99.654 312.652 101.11 305.991 97.2257C299.996 93.7295 293.304 87.8237 291.071 81.1184C286.982 68.8371 290.836 53.2348 296.371 42.0531C299.435 35.864 303.147 30.0421 310.033 27.9101C316.517 25.9029 323.798 26.3856 329.952 29.2034C335.438 31.7156 339.544 36.6822 341.394 42.3588C343.651 49.2821 340.725 56.8596 337.335 62.8716C330.839 74.4 317.834 81.5675 304.612 79.1579C299.204 78.172 294.645 75.1511 291.192 70.9561C286.622 65.4043 286.936 58.5033 290.029 52.3664C293.332 45.8158 299.086 41.3487 306.671 42.5749C313.885 43.7416 318.461 51.3545 317.314 58.2816C316.155 65.2795 307.201 67.4338 301.213 67.4319C293.775 67.4301 287.897 60.7713 285.482 54.3381C280.914 42.1761 287.599 28.799 300.3 25.97C314.128 22.8894 323.217 36.8722 325.183 48.6615C327.427 62.1206 319.922 77.1675 308.563 84.3555C296.727 91.8454 281.537 88.0977 272.204 78.5242C266.971 73.1551 265.862 67.1282 267.451 60.0185C269.116 52.5807 273.003 45.4971 279.714 41.576C293.654 33.4301 306.727 49.0659 299.877 62.2995C293.061 75.4642 275.42 73.6024 265.919 65.0484C261.04 60.6558 257.924 54.7984 258.478 48.1751C259.045 41.4083 263.349 35.0776 268.141 30.5639C271.221 27.6641 275.033 25.5973 279.017 24.2443C281.732 23.3255 280.709 18.9684 277.977 19.8984Z" fill="#FFA25F"/>
<path d="M285.342 84.3462C294.088 90.6974 304.558 92.7586 315.087 90.4011C326.476 87.8516 332.412 78.651 333.722 67.5624C334.894 57.6442 330.656 46.9041 322.145 41.3654C313.925 36.0149 301.742 35.7279 294.528 43.1675C287.552 50.3611 286.54 61.1851 293.02 69.029C300.257 77.7899 312.536 78.0714 322.596 75.0933C327.467 73.6508 332.059 71.2244 335.651 67.6164C339.702 63.5462 341.078 56.8987 341.568 51.4309C342.559 40.374 337.857 29.6917 329.476 22.5745C312.012 7.74561 283.35 15.8729 271.995 34.0973C266.533 42.8656 265.61 54.0772 271.611 62.7281C277.002 70.5032 287.506 74.3628 296.628 71.981C306.684 69.3552 314.269 61.6827 316.918 51.6694C319.788 40.8194 313.434 31.8795 304.476 26.5328C295.859 21.3892 285.251 28.0498 282.597 36.8443C279.857 45.9238 284.438 56.3154 293.762 59.3811C303.132 62.4616 315.766 59.7072 321.127 50.8941C326.265 42.45 325.611 32.5598 321.144 24.0132C311.099 4.79921 279.641 -0.0909111 264.548 15.6549C249.447 31.4062 263.064 61.2559 284.118 61.6361C296.054 61.8522 307.927 58.0579 318.129 52.044C322.959 49.1964 327.538 45.566 331.139 41.2554C334.982 36.656 335.912 30.808 336.454 25.0326C336.985 19.3634 337.166 13.7558 334.818 8.44818C332.719 3.7034 328.133 0.492404 324.027 -2.37385C321.687 -4.00639 318.716 -0.659307 321.081 0.990001C327.028 5.14029 331.642 9.14708 332.315 16.8271C332.92 23.7393 331.961 32.6138 327.775 38.3072C320.106 48.7361 305.143 54.5953 292.815 56.5297C285.993 57.6013 279.095 57.9293 273.38 53.5386C267.997 49.4032 264.19 43.1787 262.938 36.5275C261.821 30.5974 263.508 24.3785 267.073 19.5908C271.423 13.7521 279.3 11.7673 286.166 11.0629C299.329 9.71359 312.691 16.1953 318.354 28.3816C320.671 33.3667 320.835 38.8328 319.404 44.0733C317.508 51.0097 311.692 54.7369 304.895 55.7526C297.64 56.8372 290.67 54.7164 287.293 47.8154C284.082 41.2498 287.657 33.1208 293.974 30.0588C300.357 26.9652 307.286 33.0332 310.741 37.9252C315.032 43.9987 312.989 52.6422 309.129 58.33C301.835 69.0812 287.053 71.3437 277.412 62.607C266.916 53.0932 273.085 37.6009 281.578 29.1903C291.272 19.5889 307.892 17.0302 320.319 22.157C333.267 27.4982 338.975 42.0661 336.543 55.2122C335.181 62.5847 330.898 66.9697 324.174 69.7745C317.141 72.7078 309.111 73.6229 302.036 70.4082C287.338 63.7271 292.558 44.0248 307.32 41.9804C322.003 39.9453 330.667 55.4265 329.165 68.1215C328.394 74.6423 325.412 80.5667 319.683 83.938C313.831 87.382 306.176 87.5218 299.724 86.2135C295.577 85.373 291.69 83.4535 288.285 80.9805C285.972 79.3014 283.005 82.6503 285.342 84.3462Z" fill="#FFA25F"/>
<path d="M295.745 84.3462C304.491 90.6974 314.961 92.7586 325.49 90.4011C336.879 87.8516 342.814 78.651 344.125 67.5624C345.297 57.6442 341.059 46.9041 332.548 41.3654C324.327 36.0149 312.145 35.7279 304.931 43.1675C297.955 50.3611 296.943 61.1851 303.423 69.029C310.659 77.7899 322.939 78.0714 332.999 75.0933C337.87 73.6508 342.462 71.2244 346.053 67.6164C350.105 63.5462 351.48 56.8987 351.97 51.4309C352.962 40.374 348.26 29.6917 339.879 22.5745C322.415 7.74561 293.753 15.8729 282.398 34.0973C276.935 42.8656 276.013 54.0772 282.014 62.7281C287.405 70.5032 297.909 74.3628 307.031 71.981C317.087 69.3552 324.672 61.6827 327.32 51.6694C330.19 40.8194 323.837 31.8795 314.879 26.5328C306.261 21.3892 295.654 28.0498 293 36.8443C290.26 45.9238 294.841 56.3154 304.165 59.3811C313.535 62.4616 326.169 59.7072 331.53 50.8941C336.668 42.45 336.014 32.5598 331.547 24.0132C321.502 4.79921 290.044 -0.0909111 274.951 15.6549C259.85 31.4062 273.467 61.2559 294.52 61.6361C306.457 61.8522 318.33 58.0579 328.532 52.044C333.362 49.1964 337.941 45.566 341.542 41.2554C345.384 36.656 346.314 30.808 346.857 25.0326C347.388 19.3634 347.569 13.7558 345.22 8.44818C343.122 3.7034 338.536 0.492404 334.43 -2.37385C332.089 -4.00639 329.119 -0.659307 331.484 0.990001C337.43 5.14029 342.045 9.14708 342.717 16.8271C343.323 23.7393 342.363 32.6138 338.178 38.3072C330.509 48.7361 315.546 54.5953 303.218 56.5297C296.395 57.6013 289.498 57.9293 283.782 53.5386C278.4 49.4032 274.593 43.1787 273.34 36.5275C272.224 30.5974 273.911 24.3785 277.476 19.5908C281.825 13.7521 289.703 11.7673 296.569 11.0629C309.731 9.71359 323.094 16.1953 328.757 28.3816C331.074 33.3667 331.238 38.8328 329.806 44.0733C327.911 51.0097 322.095 54.7369 315.298 55.7526C308.043 56.8372 301.073 54.7164 297.696 47.8154C294.485 41.2498 298.059 33.1208 304.377 30.0588C310.762 26.9652 317.689 33.0332 321.144 37.9252C325.434 43.9987 323.392 52.6422 319.532 58.33C312.238 69.0812 297.456 71.3437 287.815 62.607C277.317 53.0932 283.488 37.6009 291.98 29.1903C301.675 19.5889 318.295 17.0302 330.721 22.157C343.67 27.4982 349.378 42.0661 346.946 55.2122C345.584 62.5847 341.301 66.9697 334.577 69.7745C327.544 72.7078 319.514 73.6229 312.439 70.4082C297.741 63.7271 302.961 44.0248 317.723 41.9804C332.406 39.9453 341.07 55.4265 339.568 68.1215C338.796 74.6423 335.815 80.5667 330.086 83.938C324.234 87.382 316.578 87.5218 310.126 86.2135C305.98 85.373 302.092 83.4535 298.688 80.9805C296.377 79.3014 293.41 82.6503 295.745 84.3462Z" fill="#FFA25F"/>
<path d="M274.056 65.5234C276.647 76.0175 283.318 84.346 292.886 89.3331C303.235 94.7283 313.703 91.5229 321.856 83.8932C329.149 77.0686 332.833 66.1273 329.9 56.4047C327.067 47.0139 317.941 38.9389 307.629 39.9732C297.659 40.9739 289.906 48.5924 289.8 58.7678C289.681 70.1303 298.887 78.2651 308.494 82.475C313.147 84.5138 318.222 85.6208 323.293 85.1791C329.014 84.6815 334.352 80.4865 338.252 76.6232C346.139 68.8109 349.436 57.6142 347.619 46.7698C343.832 24.1752 316.685 11.9032 296.256 18.5098C286.425 21.6891 278.493 29.6636 277.5 40.1446C276.607 49.5652 282.146 59.2859 290.653 63.3486C300.033 67.825 310.779 66.8522 319.258 60.9072C328.448 54.4647 329.357 43.5364 325.958 33.6722C322.687 24.1845 310.285 22.4346 302.586 27.4459C294.638 32.6193 291.438 43.5159 296.587 51.8705C301.763 60.268 313.196 66.308 322.976 63.0299C332.348 59.8879 338.226 51.9078 340.323 42.4947C345.036 21.3313 324.145 -2.69081 302.454 -0.391093C280.756 1.91048 271.915 33.5045 287.761 47.3717C296.746 55.2325 308.267 59.9904 319.942 61.9733C325.47 62.9125 331.312 63.0896 336.843 62.1168C342.747 61.0787 347.229 57.2098 351.367 53.1453C355.429 49.1552 359.183 44.9863 360.81 39.4159C362.265 34.4363 360.83 29.0244 359.541 24.1864C358.804 21.4301 354.376 22.0712 355.12 24.8573C356.989 31.8645 357.932 37.9027 353.495 44.2055C349.501 49.8802 343.044 56.0432 336.173 57.6962C323.586 60.7227 308.371 55.5512 297.702 49.0807C291.796 45.4988 286.313 41.3038 284.776 34.2611C283.328 27.6285 284.431 20.4181 287.765 14.5254C290.735 9.27367 296.034 5.60608 301.848 4.24749C308.938 2.58887 316.239 6.15209 321.94 10.0415C332.87 17.4978 338.905 31.0669 335.375 44.0359C333.931 49.3398 330.531 53.6242 326.057 56.7067C320.134 60.7861 313.287 59.8841 307.435 56.278C301.19 52.4278 297.23 46.3132 299.101 38.8606C300.879 31.7714 308.856 27.8633 315.66 29.5965C322.535 31.3483 323.915 40.454 323.403 46.4213C322.766 53.8311 315.632 59.12 309.014 60.9781C296.505 64.491 283.749 56.6899 282.016 43.7936C280.128 29.7531 294.834 21.8904 306.748 20.9381C320.35 19.8516 334.7 28.6125 340.893 40.5453C347.345 52.9776 342.313 67.7934 331.979 76.2729C326.183 81.0288 320.084 81.6196 313.136 79.428C305.868 77.1357 299.14 72.6574 295.806 65.6353C288.879 51.0505 305.576 39.36 318.176 47.314C330.71 55.2288 327.35 72.6462 318.015 81.381C313.222 85.8668 307.12 88.4721 300.568 87.354C293.874 86.2134 287.933 81.3829 283.846 76.2225C281.218 72.9053 279.485 68.932 278.478 64.847C277.793 62.0739 273.365 62.7224 274.056 65.5234Z" fill="#EABF58"/>
<path d="M270.64 26.8903C263.361 35.6344 260.467 46.4863 262.209 57.709C264.095 69.8487 273.344 76.7217 284.9 78.8705C295.234 80.7919 306.811 77.087 313.22 68.5348C319.411 60.2715 320.561 47.4982 313.25 39.4045C306.179 31.5773 294.884 29.7621 286.192 36.022C276.486 43.0125 275.336 55.8901 277.765 66.6619C278.941 71.8782 281.17 76.8708 284.709 80.8944C288.7 85.4323 295.587 87.3388 301.297 88.2352C312.84 90.0448 324.387 85.8516 332.445 77.5436C349.235 60.2324 342.693 29.5646 324.344 16.3701C315.516 10.0226 303.805 8.27453 294.301 13.9735C285.758 19.0947 280.974 29.8572 282.841 39.6039C284.899 50.3477 292.43 58.8496 302.763 62.3271C313.958 66.0953 323.791 60.0479 330.03 51.0093C336.031 42.3174 329.775 30.7107 320.723 27.3133C311.377 23.8041 300.143 27.8929 296.276 37.4701C292.389 47.0976 294.403 60.5585 303.285 66.8035C311.796 72.7876 322.229 72.7895 331.517 68.6914C352.397 59.4776 359.721 26.7803 344.235 9.83066C328.742 -7.1246 296.444 5.09703 294.58 27.1847C293.523 39.7064 296.68 52.4406 302.286 63.5739C304.94 68.846 308.436 73.9077 312.711 77.989C317.275 82.3462 323.353 83.729 329.38 84.6999C335.297 85.6522 341.173 86.2318 346.911 84.1352C352.041 82.2604 355.733 77.6666 359.028 73.5554C360.907 71.211 357.599 67.8583 355.7 70.227C350.925 76.185 346.398 80.7509 338.284 80.9242C330.982 81.0789 321.728 79.4538 316.04 74.6606C305.62 65.881 300.508 49.757 299.334 36.6743C298.684 29.4341 298.82 22.1678 303.829 16.4707C308.548 11.1054 315.348 7.54025 322.423 6.68857C328.729 5.92821 335.144 8.1329 339.924 12.2124C345.755 17.1864 347.289 25.5988 347.552 32.8576C348.053 46.777 340.315 60.3591 327.123 65.4599C321.726 67.5471 315.973 67.3384 310.568 65.4692C303.414 62.9962 299.905 56.6281 299.312 49.4178C298.678 41.721 301.39 34.5498 308.872 31.4841C315.991 28.5675 324.281 32.8874 327.058 39.7381C329.862 46.6577 323.006 53.5122 317.629 56.8015C310.95 60.8847 302.016 58.1376 296.311 53.6892C285.529 45.2786 284.179 29.5981 294.029 20.0806C304.752 9.71884 320.593 17.2758 328.835 26.7803C338.245 37.6303 339.775 55.264 333.526 67.959C327.015 81.1851 311.317 86.1666 297.679 82.7003C290.031 80.7546 285.724 75.9539 283.246 68.697C280.653 61.1064 280.251 52.6083 284.121 45.4016C292.161 30.4293 312.49 37.2837 313.61 52.9288C314.724 68.4938 297.864 76.5149 284.634 74.0549C277.839 72.7913 271.825 69.2467 268.683 62.9943C265.474 56.6076 265.86 48.5586 267.682 41.8738C268.855 37.5782 271.141 33.6273 273.974 30.2243C275.895 27.9041 272.584 24.5552 270.64 26.8903Z" fill="#F7D075"/>
<path d="M345.714 20.6159C344.035 9.36338 337.863 -0.0218048 328.328 -6.1904C318.015 -12.864 306.729 -10.5364 297.431 -3.34464C289.118 3.08859 284.177 14.192 286.293 24.6693C288.337 34.7907 297.103 44.1517 308.011 44.0827C318.559 44.0175 327.434 36.796 328.547 26.1435C329.791 14.2461 320.947 4.81613 311.291 -0.54179C306.615 -3.13782 301.407 -4.7964 296.049 -4.83368C290.005 -4.87654 283.998 -1.0058 279.529 2.65808C270.495 10.0679 265.936 21.4769 266.773 33.0184C268.514 57.0703 295.754 72.6055 317.816 67.6948C328.431 65.3318 337.529 57.7561 339.603 46.8707C341.467 37.0867 336.622 26.3522 328.105 21.2571C318.718 15.6401 307.361 15.6009 297.886 20.9961C287.621 26.8423 285.59 38.2049 288.18 48.876C290.672 59.1408 303.498 62.1971 312.059 57.7039C320.898 53.0654 325.326 41.9619 320.753 32.6997C316.157 23.389 304.77 15.9327 294.198 18.4038C284.067 20.7725 277.12 28.555 273.996 38.2142C266.972 59.9273 286.498 87.1604 309.454 86.8883C332.419 86.6144 344.799 54.3755 329.558 38.2812C320.919 29.1569 309.314 23.0368 297.273 19.809C291.572 18.2809 285.469 17.5186 279.576 17.9939C273.286 18.4989 268.208 22.1143 263.472 25.9645C258.823 29.7458 254.479 33.7452 252.224 39.4218C250.207 44.4983 251.178 50.3109 252.052 55.5067C252.552 58.468 257.255 58.2313 256.752 55.2384C255.485 47.7093 255.092 41.291 260.362 35.1224C265.107 29.5707 272.481 23.7469 279.844 22.692C293.333 20.7613 308.768 27.681 319.31 35.5119C325.145 39.8467 330.479 44.7853 331.396 52.3162C332.259 59.4092 330.392 66.8581 326.32 72.7042C322.689 77.9149 316.774 81.2359 310.548 82.0876C302.953 83.1275 295.655 78.6735 290.065 74.0349C279.345 65.1435 274.36 50.3277 279.336 37.0867C281.371 31.6691 285.357 27.5151 290.348 24.7271C296.956 21.0353 304.044 22.6548 309.819 27.0119C315.984 31.6617 319.53 38.4602 316.837 46.0861C314.275 53.3394 305.533 56.6491 298.572 54.163C291.541 51.649 290.989 41.9712 292.116 35.7691C293.514 28.0667 301.513 23.2288 308.63 21.9335C322.083 19.4847 334.683 28.9184 335.231 42.603C335.826 57.5027 319.64 64.2937 307.061 64.1167C292.7 63.9154 278.523 53.3188 273.21 40.2045C267.673 26.5404 274.406 11.5103 286.073 3.64208C292.616 -0.77098 299.066 -0.789619 306.131 2.19404C313.522 5.31375 320.13 10.6698 322.931 18.3554C328.753 34.3229 310.104 44.9288 297.685 35.3498C285.329 25.8211 290.566 7.89858 301.209 -0.336774C306.675 -4.56534 313.324 -6.69362 320.082 -4.87845C326.985 -3.02228 332.734 2.62454 336.508 8.43532C338.934 12.17 340.358 16.5048 341.012 20.8843C341.46 23.8624 346.163 23.622 345.714 20.6159Z" fill="#FCDB9A"/>
<path d="M285.53 -13.5238L286.462 -9.16849L289.183 -3.38198L290.756 92.5369L288.104 102.571L286.017 105.8L285.53 -13.5238Z" fill="url(#paint2_radial_20_2035)"/>
<path d="M287.724 92.8627C287.888 92.8925 288.007 92.9148 288.11 92.9372C288.223 92.9409 288.376 92.9465 288.602 92.9614C289.243 93.0005 289.878 93.0248 290.519 93.0323C290.555 93.0323 290.588 93.0379 290.624 93.0397L290.756 92.5384L289.185 -3.38052L289.028 -3.71411C288.987 -3.68988 288.946 -3.66936 288.905 -3.64514C288.551 -3.43641 288.199 -3.2221 287.851 -3.00219C287.7 -2.86056 286.978 -2.29215 286.788 -2.11138C286.418 -1.75542 286.011 -1.45722 285.584 -1.20377L285.965 92.4154C286.542 92.5868 287.126 92.7546 287.724 92.8627Z" fill="#8A6D3F"/>
<path d="M284.103 -33.582L279.85 122.688C279.85 122.688 283.678 125.027 286.015 122.688V-33.582C286.017 -33.582 285.592 -36.7725 284.103 -33.582Z" fill="#912828"/>
<path d="M285.113 -34.965L281.03 123.245C281.03 123.245 282.824 123.887 284.028 123.68L283.935 116.924L285.113 -34.965Z" fill="#B95F5F"/>
<path d="M285.113 -34.9651L282.645 123.648C282.645 123.648 285.869 124.03 286.017 122.686L285.456 -34.9353C285.456 -34.9353 285.256 -35.0415 285.113 -34.9651C285.113 -34.9651 284.969 -34.8868 285.113 -34.9651Z" fill="#AF4040"/>
<path d="M284.004 54.8154C284.004 55.5646 283.741 56.174 283.417 56.174C283.093 56.174 282.83 55.5664 282.83 54.8154C282.83 54.0662 283.093 53.4568 283.417 53.4568C283.741 53.4568 284.004 54.0643 284.004 54.8154Z" fill="#FFA773"/>
<path d="M272.658 4.18618L273.162 9.53291L275.131 86.8939L273.896 89.1991C273.896 89.1991 272.524 90.6192 272.66 92.0207L270.715 91.3498L271.182 0.302368L272.658 4.18618Z" fill="url(#paint3_radial_20_2035)"/>
<path d="M273.107 8.97028C273.055 9.02618 273.003 9.08026 272.949 9.13616C272.433 9.87043 271.814 10.5003 271.126 11.0091L270.748 84.5589C271.218 84.7136 271.676 84.9037 272.097 85.1813C272.643 85.541 273.158 85.9417 273.666 86.3517C274.06 86.6443 274.462 86.9164 274.915 87.1195C274.939 87.1307 274.962 87.1475 274.986 87.1587L275.129 86.8922L273.16 9.53123L273.107 8.97028Z" fill="#8A6D3F"/>
<path d="M269.704 -33.582L265.452 122.688C265.452 122.688 269.28 125.027 271.617 122.688V-33.582C271.618 -33.582 271.193 -36.7725 269.704 -33.582Z" fill="#912828"/>
<path d="M270.715 -34.965L266.631 123.245C266.631 123.245 268.426 123.887 269.63 123.68L269.537 116.924L270.715 -34.965Z" fill="#B95F5F"/>
<path d="M270.715 -34.9651L268.247 123.648C268.247 123.648 271.471 124.03 271.618 122.686L271.058 -34.9353C271.056 -34.9353 270.856 -35.0415 270.715 -34.9651C270.715 -34.9651 270.571 -34.8868 270.715 -34.9651Z" fill="#AF4040"/>
<path d="M269.606 54.8154C269.606 55.5646 269.343 56.174 269.019 56.174C268.695 56.174 268.432 55.5664 268.432 54.8154C268.432 54.0662 268.695 53.4568 269.019 53.4568C269.343 53.4568 269.606 54.0643 269.606 54.8154Z" fill="#FFA773"/>
<path d="M273.161 9.53284L276.658 87.1584L275.131 86.8919L273.161 9.53284Z" fill="#FFD38F"/>
<path d="M289.183 -3.3822L291.678 92.6131L290.622 93.038L289.183 -3.3822Z" fill="#FFD38F"/>
<path d="M283.417 99.7696C283.417 100.811 283.029 101.657 282.55 101.657C282.071 101.657 281.684 100.811 281.684 99.7696C281.684 98.7278 282.071 97.8818 282.55 97.8818C283.029 97.8818 283.417 98.726 283.417 99.7696Z" fill="white"/>
<path d="M268.726 62.0985C268.99 62.0985 269.205 61.6655 269.205 61.1313C269.205 60.5971 268.99 60.1641 268.726 60.1641C268.461 60.1641 268.247 60.5971 268.247 61.1313C268.247 61.6655 268.461 62.0985 268.726 62.0985Z" fill="white"/>
<path d="M346.303 75.0093C362.28 75.0093 375.232 62.633 375.232 47.3661C375.232 32.0992 362.28 19.723 346.303 19.723C330.326 19.723 317.374 32.0992 317.374 47.3661C317.374 62.633 330.326 75.0093 346.303 75.0093Z" fill="#5C1A09"/>
<path d="M345.697 74.3719C361.34 74.3719 374.021 62.1383 374.021 47.0474C374.021 31.9566 361.34 19.723 345.697 19.723C330.055 19.723 317.374 31.9566 317.374 47.0474C317.374 62.1383 330.055 74.3719 345.697 74.3719Z" fill="#6A2A2A"/>
<path d="M345.507 73.1551C360.783 73.1551 373.166 60.7716 373.166 45.4958C373.166 30.2199 360.783 17.8364 345.507 17.8364C330.231 17.8364 317.847 30.2199 317.847 45.4958C317.847 60.7716 330.231 73.1551 345.507 73.1551Z" fill="#D34040"/>
<path d="M345.507 72.0535C360.174 72.0535 372.064 60.1633 372.064 45.496C372.064 30.8286 360.174 18.9384 345.507 18.9384C330.84 18.9384 318.949 30.8286 318.949 45.496C318.949 60.1633 330.84 72.0535 345.507 72.0535Z" fill="#F35C53"/>
<path d="M363.75 63.75C373.829 53.6708 373.829 37.3292 363.75 27.25C353.671 17.1708 337.329 17.1708 327.25 27.25C317.171 37.3292 317.171 53.6708 327.25 63.75C337.329 73.8292 353.671 73.8292 363.75 63.75Z" fill="#F35C53"/>
<path d="M345.507 70.9604C359.571 70.9604 370.971 59.5595 370.971 45.4958C370.971 31.4321 359.571 20.0312 345.507 20.0312C331.443 20.0312 320.042 31.4321 320.042 45.4958C320.042 59.5595 331.443 70.9604 345.507 70.9604Z" fill="#C02E24"/>
<path d="M363.053 63.0527C372.747 53.3586 372.747 37.6414 363.053 27.9473C353.359 18.2532 337.641 18.2532 327.947 27.9473C318.253 37.6414 318.253 53.3586 327.947 63.0527C337.641 72.7468 353.359 72.7468 363.053 63.0527Z" fill="#FF9D97"/>
<path d="M363.736 61.2654C372.089 51.2065 370.607 36.1997 360.427 27.7466C350.248 19.2936 335.224 20.5954 326.871 30.6542C318.519 40.7131 320 55.7199 330.18 64.173C340.36 72.626 355.384 71.3242 363.736 61.2654Z" fill="#DF6565"/>
<path d="M345.507 66.6689C357.2 66.6689 366.68 57.1895 366.68 45.4959C366.68 33.8024 357.2 24.3229 345.507 24.3229C333.813 24.3229 324.334 33.8024 324.334 45.4959C324.334 57.1895 333.813 66.6689 345.507 66.6689Z" fill="#FF9D97"/>
<path d="M352.298 64.6482C362.873 60.8817 368.393 49.2554 364.626 38.6802C360.86 28.1049 349.233 22.5853 338.658 26.3518C328.083 30.1182 322.563 41.7445 326.33 52.3197C330.096 62.895 341.722 68.4146 352.298 64.6482Z" fill="#FF8585"/>
<path d="M345.507 64.1205C355.793 64.1205 364.131 55.7821 364.131 45.4961C364.131 35.2102 355.793 26.8718 345.507 26.8718C335.221 26.8718 326.882 35.2102 326.882 45.4961C326.882 55.7821 335.221 64.1205 345.507 64.1205Z" fill="#F26C6C"/>
<path d="M345.507 63.4747C355.436 63.4747 363.485 55.4254 363.485 45.4959C363.485 35.5665 355.436 27.5171 345.507 27.5171C335.577 27.5171 327.528 35.5665 327.528 45.4959C327.528 55.4254 335.577 63.4747 345.507 63.4747Z" fill="#FF8585"/>
<path d="M353.572 47.4686C354.655 43.0029 351.913 38.5047 347.447 37.4216C342.981 36.3385 338.483 39.0806 337.4 43.5463C336.317 48.0121 339.059 52.5102 343.525 53.5933C347.99 54.6765 352.489 51.9343 353.572 47.4686Z" fill="#CA4844"/>
<path d="M346.191 53.0284C350.374 52.6406 353.452 48.9345 353.064 44.7507C352.676 40.5668 348.97 37.4896 344.786 37.8774C340.602 38.2652 337.525 41.9713 337.913 46.1552C338.301 50.339 342.007 53.4163 346.191 53.0284Z" fill="#FF928A"/>
<path d="M346.146 52.5508C350.065 52.1874 352.948 48.7156 352.584 44.7961C352.221 40.8767 348.749 37.9939 344.83 38.3572C340.91 38.7205 338.028 42.1924 338.391 46.1119C338.754 50.0313 342.226 52.9141 346.146 52.5508Z" fill="#FF685F"/>
<path d="M354.62 27.1298C352.472 30.7736 350.321 34.4197 348.173 38.0635C348.26 38.3863 348.696 38.4998 349.003 38.3662C349.311 38.2327 349.511 37.9389 349.696 37.6584C350.953 35.7575 352.211 33.8565 353.36 31.8888C354.096 30.6267 354.806 29.2867 354.902 27.8287C354.918 27.5794 354.867 27.2611 354.624 27.201L354.62 27.1298Z" fill="#CA4844"/>
<path d="M346.426 42.4841C348.189 39.3144 349.952 36.1425 351.713 32.9728C353.004 30.6489 354.31 28.2916 354.994 25.7407C357.614 26.2393 360.058 27.4858 361.974 29.3C356.721 33.8765 351.786 38.8336 347.23 44.1158L346.426 42.4841Z" fill="#DF6565"/>
<path d="M364.224 54.1747C363.543 54.1836 362.929 53.7985 362.343 53.4535C359.307 51.6572 355.873 50.5375 352.36 50.1992C352.256 50.1903 352.133 50.1658 352.093 50.0701C352.064 50.0011 352.095 49.9232 352.124 49.8542C352.327 49.3778 352.527 48.9015 352.73 48.4251C352.788 48.2871 352.854 48.1402 352.988 48.069C353.233 47.9376 353.515 48.1424 353.727 48.3249C355.014 49.4357 356.614 50.099 358.136 50.8558C360.037 51.7996 361.854 52.9148 363.559 54.1836L364.224 54.1747Z" fill="#CA4844"/>
<path d="M349.168 45.5208C352.596 46.0505 356.024 46.5803 359.452 47.1101C361.965 47.4996 364.512 47.8891 367.04 47.6309C367.403 50.2442 367.031 52.9553 365.981 55.3772C360.189 52.0895 354.154 49.2314 347.94 46.8385L349.168 45.5208Z" fill="#DF6565"/>
<path d="M330.048 60.1648C332.922 56.7569 336.561 54.0969 340.165 51.4703C339.942 51.0964 339.646 50.7647 339.299 50.4998C337.405 51.9645 335.604 53.5471 333.908 55.2366C332.405 56.7324 330.967 58.344 330.052 60.2561L330.048 60.1648Z" fill="#CA4844"/>
<path d="M342.829 48.002C340.249 50.3214 337.669 52.6386 335.092 54.958C333.2 56.6586 331.288 58.3815 329.885 60.5028C327.633 59.1294 325.767 57.1261 324.559 54.7799C330.769 52.3759 336.801 49.5112 342.586 46.2123L342.829 48.002Z" fill="#DF6565"/>
<path d="M346.056 66.8916C345.251 62.3462 344.886 57.7207 344.968 53.1042C345.371 52.9817 345.792 52.9261 346.212 52.9394C347.096 57.4959 347.141 62.2149 346.344 66.7892L346.056 66.8916Z" fill="#CA4844"/>
<path d="M346.651 49.1887C347.839 52.4474 349.026 55.7062 350.215 58.9649C351.085 61.3533 351.971 63.7729 353.415 65.8653C351.301 67.4435 348.745 68.4251 346.119 68.67C346.208 62.0122 345.801 55.3456 344.901 48.7479L346.651 49.1887Z" fill="#DF6565"/>
<path d="M328.238 32.8458C329.509 33.1129 330.35 34.2726 331.245 35.2142C333.464 37.5558 336.614 38.9359 338.546 41.5202C338.74 41.2843 338.934 41.0483 339.127 40.8124C339.187 40.7389 339.25 40.661 339.256 40.5675C339.265 40.4495 339.185 40.3449 339.109 40.2536C336.55 37.1908 333.767 34.1257 330.112 32.5208C329.442 32.2269 328.605 32.0044 328.024 32.4473C328.02 32.5364 328.013 32.6276 328.006 32.7167L328.238 32.8458Z" fill="#CA4844"/>
<path d="M342.057 43.1164C339.33 40.9728 336.605 38.827 333.878 36.6834C331.88 35.1119 329.854 33.5226 327.523 32.5054C328.492 30.0502 330.146 27.871 332.249 26.2772C335.682 31.9845 339.537 37.4358 343.777 42.571L342.057 43.1164Z" fill="#DF6565"/>
<path d="M344.327 36.7743C343 35.6991 342.319 33.8828 342.613 32.2C342.751 31.4075 343.152 30.5884 343.893 30.2701C344.848 29.8605 346.014 30.4994 346.455 31.4409C346.893 32.3825 346.749 33.5021 346.386 34.4749C346.023 35.4521 345.453 36.3513 344.723 37.097C344.63 37.048 344.407 36.8388 344.327 36.7743Z" fill="#CA4844"/>
<path d="M344.572 35.8995C343.481 35.0158 342.922 33.5222 343.163 32.1399C343.276 31.4877 343.606 30.8133 344.213 30.5528C344.997 30.2145 345.959 30.742 346.319 31.5166C346.68 32.2913 346.56 33.2106 346.263 34.0119C345.965 34.8155 345.496 35.5545 344.897 36.1688C344.821 36.1243 344.639 35.9529 344.572 35.8995Z" fill="#FAD383"/>
<path d="M345.709 32.5743C345.438 32.9015 344.952 32.9461 344.623 32.6745C344.294 32.4029 344.251 31.9177 344.523 31.5883C344.794 31.261 345.28 31.2165 345.609 31.4881C345.936 31.7597 345.981 32.2471 345.709 32.5743Z" fill="#E4B34C"/>
<path d="M345.342 34.6241C345.155 34.8489 344.826 34.8867 344.607 34.7042C344.389 34.5239 344.365 34.1923 344.552 33.9674C344.739 33.7426 345.068 33.7048 345.286 33.8873C345.504 34.0676 345.529 34.3993 345.342 34.6241Z" fill="#E4B34C"/>
<path d="M345.607 31.9866C345.471 32.1513 345.204 32.1513 345.008 31.9911C344.814 31.8286 344.765 31.5659 344.901 31.4012C345.037 31.2365 345.306 31.2365 345.5 31.3967C345.696 31.5592 345.743 31.8241 345.607 31.9866Z" fill="#FFEAB8"/>
<path d="M353.676 42.9983C354.079 41.34 355.43 39.9466 357.075 39.4903C357.852 39.2743 358.762 39.2877 359.368 39.8197C360.147 40.5053 360.069 41.8364 359.405 42.6355C358.742 43.4346 357.669 43.7818 356.634 43.8731C355.595 43.9644 354.537 43.833 353.551 43.4947C353.56 43.3901 353.651 43.0985 353.676 42.9983Z" fill="#CA4844"/>
<path d="M354.571 42.8465C354.903 41.482 356.013 40.3379 357.364 39.9617C358.003 39.7858 358.751 39.7947 359.25 40.231C359.891 40.7964 359.826 41.8893 359.281 42.546C358.736 43.2049 357.854 43.4898 357.004 43.5632C356.149 43.6389 355.281 43.5298 354.471 43.2516C354.475 43.1692 354.551 42.9288 354.571 42.8465Z" fill="#FAD383"/>
<path d="M358.066 42.4504C357.654 42.3458 357.404 41.9251 357.509 41.5133C357.614 41.1015 358.034 40.8522 358.446 40.9568C358.858 41.0614 359.107 41.4821 359.003 41.8939C358.898 42.3057 358.477 42.555 358.066 42.4504Z" fill="#E4B34C"/>
<path d="M356.053 42.996C355.769 42.9225 355.595 42.6421 355.666 42.366C355.737 42.09 356.024 41.9275 356.309 42.001C356.594 42.0744 356.768 42.3549 356.697 42.6309C356.625 42.9047 356.338 43.0694 356.053 42.996Z" fill="#E4B34C"/>
<path d="M336.717 45.2511C335.561 46.5087 333.705 47.0741 332.044 46.6757C331.261 46.4887 330.468 46.0368 330.197 45.2778C329.847 44.3006 330.56 43.1743 331.526 42.7936C332.492 42.413 333.6 42.6289 334.549 43.0518C335.501 43.4748 336.365 44.1003 337.062 44.8749C337.008 44.9639 336.786 45.1732 336.717 45.2511Z" fill="#CA4844"/>
<path d="M335.86 44.9512C334.909 45.9841 333.385 46.4493 332.018 46.1243C331.375 45.9707 330.722 45.599 330.5 44.9757C330.213 44.1722 330.798 43.2462 331.593 42.9345C332.387 42.6229 333.298 42.7988 334.079 43.146C334.863 43.4933 335.57 44.0074 336.145 44.6441C336.1 44.7153 335.918 44.8889 335.86 44.9512Z" fill="#FAD383"/>
<path d="M332.61 43.6069C332.919 43.8985 332.935 44.386 332.643 44.6954C332.352 45.0048 331.864 45.0204 331.555 44.7288C331.245 44.4372 331.23 43.9497 331.521 43.6403C331.813 43.3309 332.3 43.3153 332.61 43.6069Z" fill="#E4B34C"/>
<path d="M334.635 44.103C334.849 44.3034 334.865 44.635 334.671 44.842C334.477 45.0491 334.146 45.0535 333.932 44.8509C333.718 44.6506 333.703 44.3189 333.896 44.1119C334.09 43.9049 334.422 43.9005 334.635 44.103Z" fill="#FFE199"/>
<path d="M332.02 43.6736C332.176 43.8205 332.16 44.0877 331.987 44.2724C331.813 44.4572 331.546 44.4883 331.392 44.3414C331.236 44.1945 331.252 43.9274 331.426 43.7426C331.597 43.5579 331.864 43.5267 332.02 43.6736Z" fill="#FFEAB8"/>
<path d="M342.31 53.7247C342.876 55.3363 342.502 57.2394 341.371 58.5193C340.837 59.1226 340.067 59.6101 339.27 59.4921C338.241 59.3407 337.585 58.1832 337.703 57.1504C337.823 56.1176 338.533 55.2428 339.352 54.6039C340.173 53.9629 341.131 53.4954 342.143 53.2439C342.195 53.3329 342.277 53.6268 342.31 53.7247Z" fill="#CA4844"/>
<path d="M341.642 54.339C342.108 55.6634 341.8 57.2282 340.87 58.2811C340.432 58.7775 339.797 59.1782 339.143 59.0802C338.297 58.9556 337.756 58.0051 337.856 57.1548C337.956 56.3045 338.539 55.5855 339.212 55.0602C339.886 54.5326 340.674 54.1498 341.507 53.9406C341.549 54.0162 341.614 54.2589 341.642 54.339Z" fill="#FFE199"/>
<path d="M338.929 56.5742C339.332 56.4384 339.77 56.6543 339.906 57.0572C340.042 57.4601 339.826 57.8986 339.423 58.0344C339.02 58.1701 338.582 57.9542 338.446 57.5513C338.308 57.1485 338.526 56.7099 338.929 56.5742Z" fill="#E4B34C"/>
<path d="M340.318 55.0203C340.596 54.9268 340.894 55.0693 340.986 55.3364C341.077 55.6057 340.925 55.8995 340.647 55.993C340.369 56.0865 340.071 55.9441 339.979 55.6769C339.888 55.4076 340.04 55.1138 340.318 55.0203Z" fill="#E4B34C"/>
<path d="M338.709 57.126C338.911 57.057 339.14 57.1972 339.221 57.4376C339.301 57.678 339.203 57.9273 339.002 57.9941C338.8 58.0631 338.571 57.9229 338.491 57.6825C338.41 57.4443 338.508 57.195 338.709 57.126Z" fill="#FFEAB8"/>
<path d="M351.679 51.6238C353.387 51.6394 355.052 52.6366 355.871 54.1347C356.256 54.8403 356.454 55.7329 356.073 56.4407C355.581 57.3556 354.27 57.5826 353.34 57.1196C352.409 56.6566 351.826 55.6906 351.503 54.7045C351.178 53.714 351.065 52.6544 351.17 51.6171C351.27 51.5971 351.575 51.6216 351.679 51.6238Z" fill="#CA4844"/>
<path d="M352.031 52.4581C353.436 52.4714 354.802 53.2906 355.477 54.5215C355.795 55.1025 355.955 55.8348 355.644 56.418C355.241 57.1704 354.161 57.3573 353.396 56.9767C352.632 56.5961 352.151 55.8014 351.887 54.9912C351.619 54.1765 351.526 53.3062 351.613 52.4536C351.695 52.438 351.944 52.4581 352.031 52.4581Z" fill="#FFE199"/>
<path d="M353.213 55.7705C353.222 55.3453 353.574 55.007 353.999 55.0159C354.424 55.0248 354.762 55.3765 354.753 55.8016C354.744 56.2268 354.393 56.5651 353.968 56.5562C353.542 56.5473 353.204 56.1956 353.213 55.7705Z" fill="#E4B34C"/>
<path d="M352.222 53.9362C352.229 53.6424 352.463 53.4086 352.748 53.4153C353.03 53.422 353.257 53.6646 353.251 53.9584C353.244 54.2523 353.01 54.486 352.725 54.4793C352.441 54.4726 352.216 54.23 352.222 53.9362Z" fill="#E4B34C"/>
<path d="M353.658 56.1644C353.663 55.9507 353.872 55.7838 354.123 55.7882C354.377 55.7927 354.577 55.9708 354.573 56.1822C354.569 56.3959 354.359 56.5628 354.108 56.5584C353.854 56.5539 353.654 56.3781 353.658 56.1644Z" fill="#FFEAB8"/>
<path d="M352.48 23.2605C352.878 22.782 352.735 22.0075 352.161 21.5308C351.587 21.054 350.799 21.0555 350.402 21.534C350.004 22.0126 350.147 22.787 350.721 23.2638C351.296 23.7405 352.083 23.7391 352.48 23.2605Z" fill="#FFEAB8"/>
<path d="M346.869 22.1923C346.589 22.5285 346.134 22.6108 345.852 22.3771C345.569 22.1434 345.567 21.6804 345.847 21.3443C346.128 21.0081 346.582 20.9258 346.865 21.1595C347.147 21.3932 347.149 21.8562 346.869 22.1923Z" fill="#FFEAB8"/>
<path d="M344.042 70.4284C343.828 70.6844 343.348 70.6377 342.967 70.3238C342.586 70.0077 342.453 69.5447 342.666 69.2865C342.88 69.0306 343.361 69.0773 343.742 69.3912C344.122 69.7072 344.256 70.1702 344.042 70.4284Z" fill="#FFEAB8"/>
<path d="M338.444 65.3846C338.337 65.5137 338.137 65.5226 337.996 65.4069C337.856 65.2911 337.829 65.093 337.936 64.9639C338.043 64.8348 338.243 64.8259 338.384 64.9417C338.524 65.0574 338.551 65.2577 338.444 65.3846Z" fill="#FFEAB8"/>
<path d="M299.847 23.3423C301.77 23.3423 303.33 22.5626 303.33 21.6008C303.33 20.6389 301.77 19.8592 299.847 19.8592C297.923 19.8592 296.363 20.6389 296.363 21.6008C296.363 22.5626 297.923 23.3423 299.847 23.3423Z" fill="white"/>
<path d="M298.105 39.8876C299.067 39.8876 299.847 39.3027 299.847 38.5814C299.847 37.86 299.067 37.2752 298.105 37.2752C297.143 37.2752 296.363 37.86 296.363 38.5814C296.363 39.3027 297.143 39.8876 298.105 39.8876Z" fill="white"/>
<path d="M301.588 57.7384C301.588 57.9779 301.199 58.1738 300.717 58.1738C300.236 58.1738 299.846 57.9795 299.846 57.7384C299.846 57.4972 300.236 57.303 300.717 57.303C301.199 57.303 301.588 57.4988 301.588 57.7384Z" fill="white"/>
<path d="M305.942 84.7325C305.942 85.4533 305.357 86.0387 304.636 86.0387C303.915 86.0387 303.33 85.4533 303.33 84.7325C303.33 84.0117 303.915 83.4263 304.636 83.4263C305.359 83.4263 305.942 84.0117 305.942 84.7325Z" fill="white"/>
</g>
<defs>
<linearGradient id="paint0_linear_20_2035" x1="179" y1="-5.55172e-06" x2="-9.18394e-06" y2="172" gradientUnits="userSpaceOnUse">
<stop stop-color="#4ABAA5"/>
<stop offset="1" stop-color="#57A295"/>
</linearGradient>
<linearGradient id="paint1_linear_20_2035" x1="300" y1="-25" x2="158.057" y2="165.041" gradientUnits="userSpaceOnUse">
<stop stop-color="white"/>
<stop offset="1" stop-color="white" stop-opacity="0"/>
</linearGradient>
<radialGradient id="paint2_radial_20_2035" cx="0" cy="0" r="1" gradientUnits="userSpaceOnUse" gradientTransform="translate(288.143 46.1377) scale(42.2281 42.2281)">
<stop stop-color="#330902"/>
<stop offset="1" stop-color="#170300"/>
</radialGradient>
<radialGradient id="paint3_radial_20_2035" cx="0" cy="0" r="1" gradientUnits="userSpaceOnUse" gradientTransform="translate(272.923 46.1597) scale(32.4644 32.4645)">
<stop stop-color="#330902"/>
<stop offset="1" stop-color="#170300"/>
</radialGradient>
</defs>
</svg>
